<?xml version="1.0" standalone="no"?>
<!DOCTYPE svg PUBLIC "-//W3C//DTD SVG 20010904//EN"
 "http://www.w3.org/TR/2001/REC-SVG-20010904/DTD/svg10.dtd">
<svg version="1.0" xmlns="http://www.w3.org/2000/svg"
 width="322.000000pt" height="83.000000pt" viewBox="0 0 322.000000 83.000000"
 preserveAspectRatio="xMidYMid meet">
<g transform="translate(0.000000,83.000000) scale(0.100000,-0.100000)"
fill="#000000" stroke="none">
<path d="M7 823 c-4 -3 -7 -188 -7 -409 l0 -404 22 -5 c13 -3 736 -4 1608 -3
l1585 3 0 410 0 410 -1601 3 c-880 1 -1604 -1 -1607 -5z m3193 -408 l0 -395
-1590 0 -1590 0 0 395 0 395 1590 0 1590 0 0 -395z"/>
<path d="M290 415 l0 -355 580 0 580 0 0 355 0 355 -580 0 -580 0 0 -355z
m1140 0 l0 -335 -560 0 -560 0 0 335 0 335 560 0 560 0 0 -335z"/>
<path d="M1730 415 l0 -355 580 0 580 0 0 355 0 355 -580 0 -580 0 0 -355z
m1140 0 l0 -335 -560 0 -560 0 0 335 0 335 560 0 560 0 0 -335z"/>
</g>
</svg>
