<?xml version="1.0" standalone="no"?>
<!DOCTYPE svg PUBLIC "-//W3C//DTD SVG 20010904//EN"
 "http://www.w3.org/TR/2001/REC-SVG-20010904/DTD/svg10.dtd">
<svg version="1.0" xmlns="http://www.w3.org/2000/svg"
 width="1200.000000pt" height="1156.000000pt" viewBox="0 0 1200.000000 1156.000000"
 preserveAspectRatio="xMidYMid meet">
<g transform="translate(0.000000,1156.000000) scale(0.100000,-0.100000)"
fill="#000000" stroke="none">
<path d="M7890 11519 c-737 -94 -1378 -296 -2163 -679 -169 -82 -169 -82 -163
-114 5 -27 96 -733 196 -1521 16 -126 66 -511 110 -855 44 -344 96 -751 115
-905 20 -154 44 -345 55 -425 10 -80 28 -217 39 -305 12 -88 36 -281 55 -430
52 -405 102 -788 141 -1095 19 -151 80 -628 135 -1060 56 -432 112 -870 125
-975 13 -104 41 -316 60 -470 20 -154 83 -642 140 -1085 96 -750 105 -810 133
-878 88 -212 232 -348 423 -399 85 -22 277 -22 379 1 529 117 1190 621 1494
1138 52 89 55 98 71 217 31 215 11 517 -50 751 -56 218 -174 526 -350 915 -42
94 -86 190 -97 215 -158 348 -260 651 -310 917 -37 199 -26 687 16 698 6 1 54
8 106 15 378 47 930 195 1320 355 886 362 1552 960 1876 1686 152 340 224 647
224 956 0 136 3 165 15 169 23 9 18 26 -7 22 -18 -2 -24 -11 -26 -34 -2 -20
-10 -34 -21 -37 -13 -3 -16 -12 -13 -39 2 -20 -1 -39 -7 -42 -6 -4 -8 -19 -5
-35 4 -20 1 -30 -10 -34 -12 -5 -16 -20 -16 -56 0 -27 -4 -52 -9 -55 -4 -3
-11 -38 -15 -78 -4 -40 -11 -77 -16 -82 -6 -6 -10 -20 -10 -32 0 -28 -38 -184
-50 -206 -5 -9 -12 -39 -16 -67 -4 -35 -11 -51 -21 -51 -11 0 -13 -7 -8 -30 5
-22 2 -33 -13 -46 -16 -13 -19 -25 -15 -50 4 -27 2 -34 -11 -34 -9 0 -16 -8
-16 -20 0 -11 -11 -38 -25 -60 -14 -22 -25 -44 -25 -50 0 -6 -11 -28 -24 -49
-15 -24 -23 -47 -19 -60 4 -15 1 -21 -10 -21 -20 0 -39 -33 -31 -53 3 -8 -5
-21 -20 -30 -26 -17 -29 -23 -84 -132 -18 -36 -42 -71 -52 -78 -11 -6 -20 -15
-20 -18 0 -7 -44 -59 -112 -134 -27 -29 -48 -56 -48 -62 0 -5 -34 -42 -74 -82
-48 -45 -73 -77 -69 -87 3 -9 -1 -14 -14 -14 -10 0 -45 -27 -78 -60 -33 -33
-68 -60 -78 -60 -14 0 -17 -5 -12 -20 4 -11 2 -20 -4 -20 -6 0 -11 5 -11 11 0
5 -5 7 -11 3 -8 -4 -7 -9 2 -15 15 -10 -3 -29 -28 -29 -15 0 -83 -66 -83 -80
0 -5 -8 -9 -17 -8 -46 4 -54 -1 -47 -29 4 -20 3 -24 -4 -14 -8 11 -16 8 -43
-18 -19 -17 -40 -31 -47 -31 -7 0 -15 -7 -18 -15 -4 -10 -13 -13 -25 -10 -11
4 -19 2 -19 -4 0 -10 -34 -31 -82 -52 -22 -9 -27 -16 -22 -34 4 -15 0 -24 -11
-29 -13 -4 -16 -2 -11 9 6 17 -19 21 -29 5 -3 -6 -27 -20 -53 -31 -26 -12 -51
-28 -55 -35 -4 -8 -19 -14 -32 -14 -13 0 -27 -4 -30 -10 -3 -5 -15 -10 -27
-10 -14 0 -18 -5 -14 -16 3 -8 0 -22 -8 -30 -19 -19 -32 -18 -16 1 7 9 10 19
6 23 -4 4 -13 -1 -20 -11 -7 -9 -18 -17 -24 -17 -5 0 -35 -13 -65 -29 -30 -16
-72 -34 -93 -41 -22 -7 -43 -16 -49 -20 -5 -4 -29 -14 -52 -20 -28 -9 -43 -20
-47 -34 -4 -16 -8 -18 -17 -9 -9 9 -19 7 -41 -8 -18 -13 -39 -19 -54 -16 -13
2 -27 0 -30 -4 -3 -5 0 -9 5 -9 6 0 11 -4 11 -10 0 -5 -12 -7 -27 -4 -18 3
-60 -6 -113 -25 -47 -17 -95 -31 -107 -31 -12 0 -25 -4 -28 -10 -3 -5 -17 -10
-30 -10 -13 0 -28 -7 -33 -16 -7 -12 -17 -15 -32 -11 -14 4 -35 -1 -52 -11
-22 -13 -30 -14 -40 -4 -18 18 -28 14 -25 -10 2 -27 -25 -36 -44 -15 -11 12
-18 12 -34 2 -11 -7 -47 -18 -80 -25 -33 -6 -87 -19 -120 -27 -96 -24 -167
-36 -217 -37 -41 -1 -47 -3 -42 -18 3 -10 1 -18 -5 -18 -6 0 -11 5 -11 10 0 6
-8 5 -20 -2 -16 -10 -24 -10 -40 0 -24 15 -50 16 -50 2 0 -5 7 -10 15 -10 8 0
15 -4 15 -10 0 -5 -7 -10 -15 -10 -8 0 -15 4 -15 9 0 5 -20 9 -44 8 -39 -2
-43 -4 -34 -20 5 -10 8 -23 5 -30 -2 -7 -9 -2 -16 11 -13 25 -31 29 -31 8 0
-7 -8 -16 -18 -18 -15 -4 -18 -12 -14 -37 4 -30 -11 -44 -21 -18 -3 6 -6 2 -6
-10 -1 -13 -5 -23 -9 -23 -23 0 -37 -134 -38 -373 -2 -239 -1 -247 17 -242 21
7 25 -5 7 -23 -8 -8 -8 -15 2 -26 7 -9 10 -23 6 -31 -7 -19 10 -97 31 -141 8
-18 12 -41 8 -56 -5 -19 -1 -32 14 -47 11 -11 16 -23 11 -26 -11 -7 -3 -54 11
-69 5 -6 9 -20 9 -32 0 -13 5 -26 10 -29 6 -3 10 -17 10 -30 0 -13 5 -27 10
-30 6 -3 10 -17 10 -30 0 -14 9 -29 21 -36 15 -8 18 -14 10 -22 -20 -20 -13
-39 11 -32 17 6 20 4 15 -9 -4 -9 -10 -23 -13 -31 -4 -9 1 -17 10 -21 9 -3 16
-15 16 -25 0 -10 5 -19 10 -19 6 0 10 -9 10 -20 0 -11 5 -20 11 -20 6 0 9 -9
6 -20 -3 -12 5 -39 19 -63 13 -24 30 -62 39 -86 8 -24 26 -56 40 -73 21 -25
23 -33 13 -45 -10 -12 -9 -18 7 -30 11 -7 20 -22 20 -31 0 -14 18 -55 97 -215
5 -10 6 -22 3 -26 -2 -5 2 -14 10 -21 8 -7 15 -20 15 -30 0 -10 6 -20 14 -23
8 -3 17 -21 21 -39 4 -18 15 -44 24 -58 9 -14 23 -43 30 -65 12 -38 44 -125
62 -170 4 -11 13 -37 19 -57 6 -20 21 -49 33 -64 14 -19 17 -29 9 -32 -13 -4
-7 -48 10 -69 11 -14 43 -131 59 -218 6 -33 15 -66 21 -72 6 -7 7 -25 4 -39
-5 -18 -3 -30 6 -35 10 -7 10 -11 0 -21 -16 -16 -16 -168 0 -202 9 -21 8 -29
-4 -43 -18 -22 -18 -157 0 -175 8 -8 7 -18 -4 -41 -9 -16 -13 -38 -10 -49 3
-12 -5 -37 -20 -59 -13 -21 -24 -43 -24 -48 0 -5 -7 -14 -15 -21 -8 -7 -15
-21 -15 -31 0 -11 -9 -27 -20 -36 -14 -12 -18 -24 -13 -42 5 -21 3 -24 -8 -13
-17 16 -29 15 -29 -2 0 -7 -11 -25 -25 -40 -13 -14 -22 -33 -19 -41 4 -8 1
-15 -5 -15 -6 0 -11 5 -11 11 0 8 -5 7 -15 -1 -9 -7 -13 -21 -10 -31 4 -12 1
-21 -9 -25 -9 -3 -16 -13 -16 -21 0 -8 -14 -19 -30 -25 -25 -8 -29 -14 -24
-31 5 -16 3 -19 -10 -14 -19 7 -85 -59 -99 -99 -6 -17 -16 -24 -34 -24 -20 0
-23 -3 -18 -22 6 -17 4 -20 -9 -15 -9 4 -16 1 -16 -4 0 -6 -9 -9 -20 -6 -21 5
-29 -8 -8 -15 22 -8 -4 -30 -31 -26 -24 4 -27 1 -23 -23 4 -27 -18 -53 -26
-31 -2 7 -8 12 -13 12 -4 0 -6 -7 -3 -15 4 -10 -3 -18 -19 -24 -14 -5 -28 -16
-31 -23 -5 -10 -7 -10 -12 0 -3 6 -10 9 -16 6 -6 -4 -5 -10 3 -15 7 -4 10 -11
6 -15 -3 -4 -13 -1 -22 6 -21 17 -31 5 -14 -16 13 -16 11 -17 -14 -10 -21 5
-28 3 -25 -6 6 -18 -26 -50 -44 -43 -8 3 -23 -3 -33 -15 -10 -11 -24 -20 -31
-20 -7 0 -21 -11 -32 -24 -10 -14 -32 -28 -48 -32 -16 -4 -36 -12 -44 -19 -21
-16 -204 -105 -217 -105 -6 0 -16 -7 -23 -15 -7 -8 -23 -15 -36 -15 -12 0 -26
-4 -29 -10 -3 -5 -21 -10 -40 -10 -19 0 -36 -4 -39 -9 -14 -22 -399 -42 -420
-21 -5 5 -17 10 -26 10 -20 0 -77 27 -85 41 -11 17 -27 9 -22 -12 5 -18 3 -18
-11 -7 -26 20 -32 32 -26 51 4 12 0 17 -13 17 -24 0 -73 50 -73 74 0 13 -5 16
-22 11 -16 -6 -20 -4 -15 9 3 8 2 18 -3 21 -6 4 -10 13 -10 21 0 8 -8 26 -17
40 -9 14 -18 38 -19 52 -2 15 -11 32 -20 39 -9 7 -14 19 -11 28 4 8 2 26 -3
39 -5 13 -14 66 -20 117 -6 52 -20 157 -31 234 -11 77 -22 173 -24 213 -3 41
-9 81 -14 90 -5 8 -6 33 -3 55 3 26 1 38 -5 34 -10 -6 -17 37 -27 168 -2 28
-9 91 -15 140 -6 50 -16 124 -21 165 -5 41 -14 111 -20 155 -12 93 -29 254
-30 273 0 7 -4 10 -10 7 -6 -3 -7 1 -4 9 3 9 3 24 -1 34 -12 26 -14 91 -4 98
14 8 11 40 -5 53 -17 14 -26 72 -29 181 -1 47 -7 92 -12 100 -6 8 -10 31 -11
50 -1 32 -8 96 -35 295 -17 124 -30 228 -39 320 -4 50 -13 109 -19 132 -6 23
-10 50 -9 60 4 30 -14 113 -23 113 -13 0 -11 34 3 48 9 9 9 17 -1 34 -6 13
-13 55 -15 94 -2 38 -8 79 -14 90 -6 11 -8 39 -5 63 3 23 1 52 -5 64 -6 12
-13 47 -16 77 -3 30 -10 93 -16 140 -20 156 -32 254 -40 330 -4 41 -13 102
-19 135 -6 33 -15 104 -20 158 -6 54 -14 104 -19 110 -8 11 -20 116 -28 242
-1 28 -8 84 -14 125 -6 41 -15 109 -20 150 -5 41 -12 95 -15 120 -3 25 -13
101 -21 170 -9 69 -22 135 -30 147 -8 13 -10 24 -4 28 10 6 11 73 1 90 -3 6
-6 22 -7 38 -3 51 -26 192 -35 212 -5 11 -11 67 -14 125 -3 58 -9 137 -15 175
-6 39 -15 108 -20 155 -10 80 -14 111 -39 305 -6 44 -13 105 -17 135 -4 30
-10 60 -15 65 -4 6 -4 27 1 48 4 20 4 39 0 42 -5 3 -12 31 -16 63 -3 31 -10
62 -14 67 -4 6 -8 39 -8 75 -1 36 -6 97 -12 135 -6 39 -16 105 -21 148 -5 42
-13 113 -19 157 -5 44 -14 116 -20 160 -5 44 -14 115 -20 158 -5 42 -14 109
-20 147 -6 39 -12 88 -14 110 -9 95 -18 150 -25 164 -5 9 -9 39 -10 66 -1 50
-11 137 -31 290 -21 155 -31 241 -37 315 -3 41 -9 80 -14 85 -4 6 -9 59 -11
118 -1 59 -6 107 -10 107 -5 0 -8 -7 -8 -15 0 -8 -4 -15 -10 -15 -5 0 -10 7
-10 15 0 8 5 15 10 15 13 0 13 37 0 45 -6 4 -8 15 -5 26 4 10 0 54 -8 96 -8
43 -15 94 -15 113 1 19 -7 83 -16 141 -29 191 -24 215 50 249 29 14 54 30 54
35 0 16 58 47 65 35 9 -15 25 -12 19 4 -7 19 16 32 27 15 6 -9 12 -10 17 -4 8
11 30 23 107 55 91 39 114 50 120 60 3 6 14 10 25 10 10 0 20 6 23 13 3 8 20
14 38 15 40 1 87 19 116 45 12 10 26 16 32 13 6 -4 32 3 58 15 26 12 57 22 70
23 17 1 21 6 17 19 -6 20 25 24 44 5 16 -16 28 -2 12 17 -20 24 26 40 75 26
31 -8 42 -8 55 4 9 8 24 15 33 15 10 0 25 4 35 9 9 5 53 19 97 31 44 12 88 26
97 31 10 5 25 9 35 9 9 0 25 8 35 17 15 14 23 15 38 6 14 -10 21 -9 30 2 7 8
23 15 36 15 13 0 24 5 24 11 0 6 15 10 33 9 48 -3 59 -1 52 9 -10 17 12 21 44
10 23 -8 35 -8 45 0 8 7 40 16 72 22 33 6 79 15 104 20 69 14 158 28 237 38
40 4 79 14 87 20 9 7 29 9 55 5 28 -5 47 -2 63 8 18 12 36 14 83 7 33 -4 62
-5 65 -1 16 21 53 32 90 26 30 -5 45 -2 58 9 25 22 244 36 268 17 8 -8 33 -13
55 -12 23 2 39 -2 39 -8 0 -7 12 -9 35 -4 22 4 41 2 50 -6 8 -7 44 -14 79 -15
37 -2 75 -10 89 -19 22 -15 25 -15 37 -1 11 13 15 13 22 3 7 -10 11 -9 19 5
12 20 29 23 29 3 0 -16 43 -30 48 -16 5 13 32 13 32 0 0 -5 -4 -10 -10 -10 -5
0 -10 -4 -10 -10 0 -5 13 -7 30 -3 17 3 49 1 73 -5 23 -6 69 -16 102 -22 131
-26 320 -75 327 -85 5 -7 14 -6 28 3 26 16 40 15 40 -3 0 -10 10 -15 29 -15
16 0 34 -6 40 -14 6 -7 32 -19 56 -26 25 -7 48 -17 51 -21 3 -5 13 -9 23 -9 9
0 37 -9 60 -21 33 -16 46 -18 51 -9 10 16 33 2 26 -15 -8 -21 5 -26 26 -10 21
14 48 10 48 -6 0 -5 -7 -9 -15 -9 -8 0 -15 -5 -15 -10 0 -7 6 -7 19 0 29 15
37 13 49 -15 6 -14 17 -25 24 -25 7 -1 31 -9 53 -20 22 -11 45 -20 50 -20 6 0
26 -14 45 -30 19 -17 42 -30 52 -30 10 0 18 -4 18 -10 0 -5 6 -10 14 -10 7 0
19 -6 25 -14 7 -8 26 -21 44 -30 38 -20 64 -35 95 -58 16 -11 33 -15 53 -11
18 3 29 1 29 -6 0 -6 -7 -11 -15 -11 -8 0 -15 -4 -15 -10 0 -5 14 -10 31 -10
24 0 30 -4 25 -16 -5 -12 -1 -14 15 -9 17 6 20 4 15 -12 -6 -18 30 -43 62 -43
9 0 12 -6 8 -16 -4 -11 -1 -14 12 -10 20 6 64 -24 45 -31 -20 -7 -15 -23 7
-23 11 0 23 -7 26 -15 4 -8 13 -15 21 -15 8 0 11 -5 7 -11 -4 -8 1 -9 16 -4
19 6 22 4 17 -9 -4 -9 -2 -16 3 -16 6 0 10 -6 10 -14 0 -20 21 -31 30 -16 4 7
13 9 19 6 16 -10 14 -26 -4 -26 -8 0 -15 -5 -15 -11 0 -5 8 -9 18 -8 43 4 66
-1 55 -12 -11 -11 -7 -25 15 -59 2 -2 7 2 11 9 5 7 14 10 20 6 9 -5 9 -11 -1
-23 -11 -13 -10 -14 15 -8 30 7 32 4 15 -24 -16 -25 -2 -39 16 -15 10 14 15
15 21 5 5 -9 4 -15 -3 -18 -21 -7 -13 -22 11 -19 14 1 22 -3 22 -13 0 -8 8
-18 18 -22 9 -4 17 -14 17 -23 0 -8 5 -15 11 -15 5 0 7 -5 3 -11 -4 -8 1 -9
16 -4 15 5 20 4 16 -4 -11 -16 3 -51 20 -51 8 0 14 -7 14 -15 0 -8 6 -15 13
-15 23 0 51 -41 36 -51 -11 -8 -11 -11 4 -20 9 -5 17 -15 17 -20 0 -15 36 -59
43 -53 6 6 47 -27 47 -38 0 -5 -8 -8 -17 -8 -17 -1 -17 -1 -1 -14 25 -19 66
-81 94 -143 14 -29 31 -53 39 -53 8 0 15 -8 15 -18 0 -11 9 -27 20 -37 21 -19
27 -55 9 -55 -6 0 -2 -12 8 -27 20 -29 69 -129 86 -173 5 -14 13 -33 18 -42 5
-10 9 -26 9 -35 0 -10 7 -27 15 -37 8 -11 15 -30 15 -42 0 -13 5 -26 10 -29 6
-3 10 -16 10 -29 0 -12 4 -26 9 -32 8 -9 37 -125 61 -249 23 -116 34 -160 43
-172 5 -7 6 -20 3 -30 -3 -10 1 -30 8 -45 9 -16 11 -30 5 -33 -12 -8 -5 -48 9
-53 7 -2 12 -18 12 -35 0 -18 7 -45 16 -62 8 -16 16 -51 17 -78 2 -36 6 -47
17 -44 26 4 19 391 -9 527 -100 486 -292 909 -585 1290 -547 712 -1373 1171
-2326 1295 -128 17 -1018 20 -1140 4z m585 -19 c-3 -5 -15 -10 -26 -10 -10 0
-19 5 -19 10 0 6 12 10 26 10 14 0 23 -4 19 -10z m-345 -60 c0 -5 -16 -10 -35
-10 -19 0 -35 5 -35 10 0 6 16 10 35 10 19 0 35 -4 35 -10z"/>
<path d="M2895 10893 c-272 -14 -613 -79 -880 -168 -1067 -357 -1809 -1148
-1980 -2110 -18 -101 -20 -386 -3 -403 9 -9 9 -12 -1 -12 -11 0 -12 -45 -9
-227 6 -271 20 -357 124 -725 167 -596 506 -1137 958 -1525 321 -276 568 -427
1339 -819 950 -484 1155 -620 1568 -1040 233 -238 324 -374 391 -586 36 -115
34 -352 -5 -464 -136 -397 -573 -640 -977 -544 -451 108 -748 575 -815 1280
-8 85 -19 243 -24 350 -11 206 -32 333 -78 470 -98 288 -282 485 -531 568 -69
23 -93 26 -232 27 -157 0 -187 -5 -315 -47 -354 -119 -664 -440 -778 -803 -58
-185 -82 -451 -81 -880 2 -769 172 -1419 513 -1960 418 -665 1114 -1126 1869
-1240 108 -16 412 -21 412 -7 0 18 -37 41 -85 53 -28 6 -60 15 -73 20 -13 5
-40 9 -62 9 -21 0 -42 5 -46 11 -4 8 -27 10 -66 6 -49 -4 -58 -3 -54 9 4 10
-3 14 -28 14 -19 0 -36 5 -38 11 -2 7 -25 11 -53 11 -28 -1 -52 4 -56 10 -6 9
-14 9 -32 1 -30 -14 -50 -3 -41 22 5 13 4 16 -5 11 -12 -8 -109 12 -126 26 -5
4 -19 8 -31 8 -13 0 -26 5 -29 10 -3 6 -17 10 -30 10 -13 0 -27 5 -30 10 -3 6
-17 10 -30 10 -13 0 -27 4 -30 10 -3 5 -15 10 -26 10 -10 0 -19 4 -19 9 0 5
-7 12 -16 15 -12 4 -14 1 -9 -14 5 -15 3 -18 -8 -14 -8 3 -17 14 -20 25 -3 10
-13 22 -24 25 -46 16 -182 86 -193 99 -7 8 -21 15 -31 15 -11 0 -19 5 -19 11
0 8 -4 8 -15 -1 -15 -12 -35 -6 -35 11 0 5 7 9 15 9 8 0 15 5 15 10 0 6 -7 10
-16 10 -28 0 -104 40 -133 70 -34 36 -45 38 -35 8 6 -20 5 -21 -9 -10 -9 8
-13 20 -10 28 3 8 -1 14 -10 14 -9 0 -19 9 -22 20 -3 11 -12 20 -19 20 -7 0
-23 11 -36 25 -13 14 -29 25 -35 25 -6 0 -30 20 -54 44 -24 25 -55 47 -68 51
-16 4 -23 11 -19 20 6 16 -102 125 -136 137 -14 6 -18 14 -13 27 4 15 -1 23
-21 33 -15 7 -36 29 -47 48 -10 19 -28 41 -38 48 -10 7 -19 20 -19 28 0 8 -7
14 -15 14 -9 0 -15 9 -15 25 0 14 -8 29 -20 35 -11 6 -20 17 -20 25 0 8 -6 15
-13 15 -19 0 -52 38 -42 48 4 4 10 1 12 -5 4 -12 33 -19 33 -8 0 3 -16 19 -35
36 -19 17 -35 37 -35 45 0 8 -7 17 -15 20 -10 4 -13 13 -10 25 4 11 2 19 -3
19 -6 0 -12 -5 -14 -12 -2 -6 -10 -8 -17 -4 -9 6 -9 11 -1 21 8 9 8 15 0 20
-5 3 -10 17 -10 30 0 13 -10 35 -22 49 -42 44 -49 56 -43 67 4 5 2 16 -4 23
-6 8 -20 38 -30 67 -10 30 -24 53 -31 51 -6 -1 -9 2 -6 7 6 10 -20 67 -35 76
-5 4 -6 24 -3 46 5 32 4 39 -10 39 -11 0 -16 9 -16 28 0 15 -6 39 -14 54 -8
15 -20 53 -27 85 -7 32 -21 70 -31 85 -20 29 -23 54 -8 63 19 12 10 26 -12 20
-18 -6 -21 -5 -11 5 9 10 9 20 -4 43 -10 21 -13 44 -9 75 5 38 4 43 -10 38
-11 -4 -15 -2 -11 7 3 8 1 43 -4 78 -38 262 -41 337 -36 859 5 502 11 592 40
637 5 7 9 36 9 63 1 38 5 50 15 46 9 -4 13 4 13 23 0 16 7 34 15 41 9 7 15 20
13 29 -2 8 7 26 19 40 13 13 23 29 23 36 0 6 11 22 25 35 27 26 32 46 13 53
-8 2 -1 16 21 35 18 18 38 29 43 26 6 -4 7 2 3 16 -6 19 -4 22 10 16 19 -7 38
12 55 52 5 12 15 22 22 22 7 0 23 16 35 34 21 32 44 49 101 75 12 6 22 17 22
25 0 16 48 46 73 46 8 0 40 13 70 29 91 48 259 96 300 86 15 -4 28 -1 36 9 17
20 30 20 53 -1 10 -9 21 -13 26 -8 4 4 1 10 -5 12 -7 3 -13 9 -13 14 0 13 28
11 32 -3 3 -7 25 -12 59 -11 31 1 60 -4 69 -12 8 -7 31 -15 50 -19 19 -3 57
-17 84 -31 27 -14 55 -25 63 -25 7 0 13 -6 13 -12 0 -9 3 -8 10 2 8 12 12 11
30 -8 12 -12 18 -27 15 -32 -3 -6 -2 -10 4 -10 5 0 12 6 15 13 8 19 37 -23 30
-45 -4 -13 2 -19 20 -24 16 -4 26 -13 26 -25 0 -10 11 -26 25 -35 14 -9 25
-23 25 -30 0 -8 7 -14 16 -14 12 0 15 -6 10 -24 -4 -16 -1 -26 9 -30 8 -3 15
-16 15 -28 0 -13 7 -32 15 -42 8 -10 22 -42 31 -70 9 -28 20 -55 25 -60 5 -6
9 -25 9 -43 0 -18 3 -33 8 -33 4 0 7 -22 8 -50 1 -27 5 -55 11 -62 5 -7 11
-69 12 -138 3 -228 26 -503 51 -625 5 -22 14 -67 21 -100 7 -33 18 -71 24 -85
7 -14 10 -31 8 -37 -3 -7 1 -13 7 -13 8 0 10 -11 6 -33 -3 -17 -3 -26 0 -19
11 23 24 12 24 -19 0 -60 99 -307 120 -301 6 1 10 -11 10 -28 0 -16 5 -30 10
-30 6 0 10 -8 10 -19 0 -10 9 -21 20 -24 11 -3 20 -14 20 -25 0 -11 7 -25 15
-32 8 -7 15 -17 15 -23 0 -23 204 -217 222 -211 12 3 18 0 18 -10 0 -9 11 -18
25 -22 14 -3 25 -13 25 -23 0 -9 9 -21 19 -26 129 -67 202 -96 223 -89 12 3
24 0 31 -9 13 -16 117 -30 117 -16 0 5 7 9 15 9 8 0 15 -7 15 -15 0 -12 8 -14
39 -9 25 4 41 2 46 -5 5 -9 14 -8 32 5 19 12 38 15 68 11 27 -4 51 -1 69 8 16
8 39 15 52 15 12 0 26 5 29 10 3 6 15 10 26 10 10 0 27 4 37 10 9 5 39 20 66
32 87 41 87 41 81 66 -3 12 -1 22 5 22 5 0 10 -4 10 -10 0 -16 30 -12 36 5 4
8 11 15 17 15 6 0 26 14 43 31 18 17 43 37 56 43 12 6 24 19 26 29 2 10 26 38
53 64 27 25 49 51 49 58 0 6 9 20 20 30 11 10 20 22 20 28 0 14 32 80 48 99
13 15 13 20 1 34 -12 15 -12 16 7 10 19 -6 22 0 34 74 8 45 17 83 22 86 4 3 8
58 8 122 0 140 -22 264 -62 349 -6 12 -8 29 -4 38 4 13 2 15 -14 10 -18 -6
-19 -3 -14 24 4 20 2 31 -5 31 -6 0 -11 11 -11 25 0 19 -5 25 -21 25 -17 0
-20 4 -15 23 4 18 -2 31 -24 52 -17 16 -30 34 -30 40 0 6 -11 22 -25 35 -14
13 -25 28 -25 33 0 5 -25 37 -55 70 -30 34 -55 68 -55 75 0 9 -7 11 -20 7 -14
-5 -20 -2 -20 9 0 9 -13 30 -30 48 -16 17 -30 35 -30 39 0 5 -4 9 -9 9 -8 0
-81 67 -81 74 0 2 -26 29 -57 61 -42 42 -65 58 -85 58 -22 0 -25 3 -17 13 12
15 4 34 -15 34 -7 0 -23 11 -36 25 -13 14 -29 25 -36 25 -7 0 -21 11 -32 25
-12 15 -26 23 -35 20 -8 -4 -21 5 -32 21 -21 32 -66 73 -80 74 -5 0 -27 16
-47 35 -21 18 -38 30 -38 24 0 -14 -17 -11 -37 6 -10 8 -27 21 -38 29 -20 15
-20 15 0 30 19 14 19 15 -10 14 -16 0 -46 9 -65 20 -19 12 -51 29 -70 39 -19
9 -42 25 -51 35 -20 22 -30 23 -22 2 12 -31 -30 -10 -46 23 -10 20 -26 34 -42
38 -15 3 -34 14 -43 24 -10 11 -26 16 -39 14 -14 -3 -29 2 -36 11 -8 9 -19 16
-26 16 -7 0 -18 7 -25 15 -7 8 -20 15 -30 15 -10 0 -25 12 -35 26 -14 21 -19
24 -26 13 -8 -12 -12 -11 -23 4 -20 26 -82 58 -101 51 -9 -4 -17 1 -21 11 -5
12 -14 15 -30 11 -14 -4 -24 -2 -24 4 0 5 5 10 10 10 16 0 12 17 -6 24 -8 3
-24 1 -34 -4 -20 -11 -50 -4 -50 11 0 5 10 9 23 10 15 0 17 2 7 6 -8 4 -20 13
-27 22 -8 11 -12 12 -13 4 0 -21 -29 -15 -58 12 -15 14 -31 25 -37 25 -5 0
-23 7 -39 15 -23 12 -32 13 -44 3 -13 -11 -14 -10 -8 9 6 19 4 22 -21 20 -20
-1 -28 3 -28 15 0 9 -4 20 -8 24 -4 4 -7 3 -7 -3 0 -15 -24 -23 -41 -12 -11 7
-10 11 6 24 20 16 20 16 -3 10 -14 -4 -32 1 -50 13 -15 10 -44 26 -64 35 -20
10 -39 21 -42 26 -3 5 -16 6 -30 4 -18 -4 -26 0 -31 16 -5 16 -12 20 -26 16
-12 -4 -19 -2 -19 7 0 16 -65 45 -88 40 -7 -2 -16 6 -19 17 -3 11 -21 27 -41
36 -21 9 -48 22 -62 30 -14 8 -33 15 -42 15 -10 0 -18 5 -18 11 0 7 -10 9 -26
6 -19 -3 -24 -1 -20 9 21 50 21 50 -2 30 -21 -18 -22 -18 -30 3 -7 21 -29 37
-77 60 -12 5 -27 16 -34 25 -7 9 -19 16 -26 16 -6 0 -20 8 -29 19 -9 10 -30
21 -45 24 -17 4 -31 14 -34 26 -3 12 -16 25 -29 30 -12 5 -32 18 -42 30 -11
11 -25 21 -33 21 -7 0 -16 7 -19 15 -4 9 -13 13 -23 10 -16 -5 -60 41 -74 78
-3 9 -12 17 -19 17 -6 0 -22 10 -35 22 -20 19 -26 20 -33 8 -5 -8 -13 -11 -17
-6 -4 5 -2 11 5 13 22 8 14 35 -8 28 -22 -7 -28 10 -7 19 6 3 1 3 -11 0 -21
-5 -23 -3 -17 16 5 14 3 20 -3 16 -16 -10 -44 5 -38 21 3 8 -11 29 -34 49 -22
20 -40 45 -40 55 0 20 -15 26 -25 9 -3 -5 -1 -10 4 -10 6 0 11 -7 11 -17 0
-14 -2 -14 -20 2 -12 10 -18 25 -15 33 3 8 -6 23 -20 34 -14 11 -25 24 -25 30
0 14 -57 78 -63 71 -3 -3 -13 10 -22 29 -10 18 -35 56 -56 85 -22 29 -39 57
-39 62 0 6 -11 18 -25 27 -14 9 -25 25 -25 35 0 10 -4 20 -10 24 -5 3 -7 12
-4 19 3 8 -4 16 -16 19 -17 4 -20 11 -15 26 3 12 2 21 -3 21 -5 0 -12 8 -16
18 -3 9 -15 31 -26 47 -11 17 -23 38 -26 48 -4 10 -19 24 -35 33 -31 15 -37
30 -17 36 9 3 7 15 -7 44 -11 21 -20 50 -22 64 -1 13 -8 29 -15 35 -13 9 -67
139 -82 195 -12 43 -40 106 -58 133 -11 14 -10 19 2 28 11 8 12 12 2 16 -6 2
-15 22 -18 44 -4 22 -11 42 -15 45 -5 3 -9 20 -9 39 0 19 -4 37 -10 40 -5 3
-10 21 -10 40 0 19 -4 36 -9 39 -4 3 -11 27 -14 53 -3 29 -12 52 -23 60 -16
11 -17 17 -6 34 12 19 8 44 -7 35 -4 -3 -5 11 -3 30 2 19 -1 41 -8 50 -8 8
-12 37 -11 69 1 29 -3 56 -9 60 -5 3 -10 19 -10 35 0 16 -5 32 -11 36 -7 4 -9
23 -5 50 3 26 2 44 -4 44 -6 0 -10 6 -10 14 0 8 -7 16 -15 20 -16 6 -21 41 -7
50 4 2 7 30 6 63 -1 39 3 64 13 75 10 11 13 26 9 44 -4 16 -3 30 4 34 6 4 19
51 29 106 10 54 20 104 21 109 2 6 0 18 -4 28 -5 9 -5 25 -1 35 8 16 8 16 12
0 9 -38 22 -15 19 32 -3 28 -1 50 3 50 4 0 16 36 26 80 10 45 22 83 27 86 4 3
8 13 8 23 0 10 7 32 15 47 8 16 15 37 15 46 0 9 5 20 10 23 6 3 10 17 10 31 0
17 4 23 12 18 8 -5 9 2 5 24 -5 25 -2 34 14 43 14 7 19 17 16 30 -3 10 0 17 6
16 6 -1 13 9 15 23 2 14 10 32 17 40 7 8 30 50 51 93 21 42 42 77 46 77 4 0 8
7 8 15 0 8 4 15 9 15 8 0 30 31 67 93 7 10 28 36 48 56 20 20 36 46 36 57 0
10 10 24 22 29 13 6 28 21 35 35 7 14 22 33 34 43 12 9 29 32 38 50 9 17 27
37 41 44 14 7 52 39 84 72 32 34 62 61 67 61 6 0 31 20 57 44 26 24 57 47 70
51 18 5 21 11 16 27 -5 17 -3 20 10 15 9 -4 16 -2 16 3 0 5 11 12 24 16 13 3
34 17 47 30 12 13 30 24 40 24 10 0 20 8 24 19 3 11 19 21 36 25 26 5 29 9 23
28 -6 21 -5 22 11 8 15 -13 19 -12 30 3 7 9 17 17 22 17 5 0 18 9 28 20 10 11
23 20 29 20 19 0 186 87 213 110 16 14 31 19 45 14 12 -4 18 -2 14 4 -9 15 19
33 56 36 18 2 54 13 80 25 26 11 50 21 53 21 4 0 21 6 38 14 18 8 53 20 80 27
26 7 47 18 47 24 0 18 46 39 67 30 22 -10 5 -13 148 23 66 17 147 35 180 42
33 6 76 16 96 21 20 5 57 9 83 9 34 0 46 4 46 15 0 17 16 20 25 5 4 -7 11 -7
18 -2 7 5 38 6 70 3 43 -5 61 -4 69 6 9 11 14 11 28 -2 13 -11 19 -12 28 -3
15 15 320 14 334 0 11 -11 74 -5 101 10 14 7 23 5 36 -6 21 -19 42 -20 60 -3
11 10 12 8 7 -10 -7 -20 -4 -21 29 -16 20 3 62 0 93 -7 211 -46 280 -64 304
-76 14 -8 34 -11 44 -7 11 4 22 0 31 -12 9 -13 26 -19 51 -19 27 0 42 -6 55
-23 10 -13 28 -23 39 -23 23 0 184 -76 194 -91 4 -6 11 -6 21 2 12 10 18 8 36
-15 22 -26 55 -49 90 -62 9 -3 17 -11 17 -16 0 -5 9 -7 20 -3 25 8 70 -21 70
-45 0 -10 9 -21 20 -25 11 -3 28 -17 39 -31 10 -13 25 -22 32 -20 8 3 32 -17
54 -44 22 -26 54 -54 70 -61 33 -14 65 -45 65 -63 0 -13 99 -116 111 -116 5 0
9 -8 9 -18 0 -9 18 -36 41 -59 23 -24 38 -47 34 -54 -5 -8 -1 -9 14 -4 16 5
20 3 15 -9 -3 -8 10 -39 30 -69 20 -30 36 -58 36 -63 0 -15 35 -41 49 -36 9 3
11 -2 6 -18 -5 -15 6 -47 39 -110 25 -49 46 -96 46 -104 0 -7 7 -26 14 -42 8
-15 13 -31 11 -34 -3 -4 7 -17 20 -30 19 -18 22 -26 13 -37 -8 -11 -6 -18 11
-34 15 -14 19 -27 15 -44 -5 -19 -2 -25 11 -25 13 0 16 -6 12 -27 -3 -15 -1
-34 4 -42 21 -39 52 -170 53 -223 1 -50 3 -57 19 -52 19 6 24 -12 5 -19 -10
-3 -10 -9 -1 -25 9 -15 10 -29 3 -47 -13 -34 -13 -55 0 -55 6 0 10 9 10 20 0
11 5 20 10 20 14 0 13 -47 -1 -52 -8 -3 -4 -21 11 -55 12 -29 19 -57 15 -63
-8 -13 -7 -838 1 -851 2 -4 0 -27 -5 -51 -7 -30 -7 -46 2 -57 10 -12 9 -14 -7
-8 -15 6 -17 4 -13 -14 4 -15 -3 -33 -24 -58 -16 -19 -29 -40 -29 -44 0 -5
-11 -23 -25 -39 -18 -21 -24 -37 -19 -51 5 -16 3 -19 -10 -14 -10 4 -16 1 -16
-9 0 -8 -8 -18 -17 -21 -10 -4 -34 -22 -53 -40 -19 -18 -40 -33 -46 -33 -6 0
-17 -7 -24 -15 -7 -9 -20 -13 -27 -11 -10 4 -13 1 -9 -12 7 -21 -33 -45 -59
-36 -8 4 -15 1 -15 -5 0 -6 -7 -11 -15 -11 -8 0 -15 -4 -15 -10 0 -5 -9 -10
-19 -10 -11 0 -22 -4 -25 -9 -3 -4 -26 -14 -51 -21 -25 -7 -48 -17 -51 -21 -3
-5 -16 -9 -29 -9 -13 0 -27 -5 -31 -11 -3 -6 -17 -8 -31 -4 -22 5 -24 3 -17
-17 6 -20 5 -21 -10 -9 -13 11 -19 11 -32 0 -12 -10 -20 -10 -34 -1 -14 9 -21
8 -30 -3 -7 -8 -18 -15 -25 -15 -8 0 -15 -6 -18 -12 -3 -10 -7 -10 -20 1 -14
11 -20 11 -34 0 -19 -16 -410 -14 -430 3 -6 5 -28 6 -48 2 -30 -5 -39 -3 -51
14 -9 13 -21 18 -34 15 -19 -5 -187 70 -201 90 -3 4 -14 5 -23 1 -15 -6 -17
-3 -11 14 5 18 2 22 -15 22 -12 0 -29 8 -38 17 -16 16 -16 16 1 10 26 -10 21
13 -10 46 -28 28 -28 28 -34 370 -4 217 -11 352 -18 370 -6 16 -11 45 -11 66
0 21 -6 44 -14 51 -8 6 -13 17 -10 25 3 7 1 16 -5 20 -6 3 -8 17 -5 31 4 17 2
24 -9 24 -10 0 -21 22 -32 68 -25 93 -71 189 -95 197 -12 4 -20 15 -20 30 0
16 -7 25 -24 29 -17 4 -29 19 -42 51 -11 31 -22 45 -35 45 -12 0 -19 7 -19 20
0 12 -9 24 -22 29 -13 5 -32 18 -42 30 -11 11 -25 21 -31 21 -7 0 -18 6 -24
14 -17 20 -88 56 -111 56 -10 0 -23 6 -27 14 -4 8 -43 24 -85 35 -124 33 -417
25 -454 -12 -4 -4 -15 -7 -25 -7 -16 0 -86 -41 -99 -58 -11 -15 -50 -31 -63
-26 -8 3 -28 -6 -45 -20 -16 -15 -34 -26 -38 -26 -5 0 -18 -7 -29 -16 -17 -13
-18 -16 -5 -25 13 -8 12 -11 -5 -24 -11 -9 -25 -13 -33 -10 -13 5 -55 -38
-101 -103 -40 -59 -49 -74 -71 -122 -11 -25 -25 -53 -31 -64 -43 -75 -49 -466
-8 -492 5 -3 9 -16 9 -29 0 -13 5 -27 10 -30 6 -3 10 -14 10 -23 0 -21 37 -97
48 -97 4 0 6 -8 5 -17 -2 -10 3 -18 10 -18 13 0 51 -76 50 -98 -1 -7 10 -25
23 -39 13 -14 24 -32 24 -40 0 -10 6 -12 20 -8 17 5 20 2 20 -21 0 -21 21 -49
88 -117 179 -185 202 -205 223 -200 13 4 19 0 19 -11 0 -9 4 -16 9 -16 5 0 11
-10 13 -22 2 -12 13 -28 26 -34 13 -6 36 -24 51 -38 23 -22 34 -26 57 -20 26
7 28 6 15 -9 -11 -14 -11 -18 5 -23 37 -11 49 -22 47 -43 -2 -15 3 -21 16 -21
10 0 24 -7 31 -15 7 -8 21 -15 31 -15 11 0 19 -6 19 -14 0 -14 78 -56 104 -56
7 0 16 -9 19 -20 3 -11 16 -24 29 -30 12 -6 37 -19 53 -30 49 -31 87 -50 102
-50 7 0 13 -3 13 -7 0 -5 16 -9 36 -10 42 -2 52 -9 36 -25 -16 -16 -15 -28 1
-28 15 0 99 -41 119 -58 7 -6 26 -14 41 -17 15 -4 32 -15 37 -24 8 -13 11 -14
19 -2 10 16 31 7 31 -14 0 -8 16 -16 40 -20 22 -4 40 -12 40 -18 0 -7 43 -32
95 -57 56 -27 95 -51 95 -60 1 -12 3 -12 14 3 21 27 39 22 31 -10 -6 -27 -6
-27 13 -10 20 18 40 8 27 -13 -4 -7 2 -9 19 -4 18 4 26 2 26 -7 0 -13 24 -26
141 -78 25 -11 51 -26 57 -34 7 -8 23 -12 38 -9 20 3 26 0 31 -17 6 -22 18
-27 28 -11 11 18 36 -1 29 -22 -4 -12 -2 -18 4 -14 5 3 54 -17 107 -44 54 -28
106 -50 116 -50 10 0 21 -5 25 -11 3 -6 17 -8 30 -5 14 4 24 2 24 -4 0 -5 -4
-10 -10 -10 -23 0 -7 -20 28 -37 20 -9 39 -20 42 -24 3 -4 14 -7 25 -6 12 1
24 -7 30 -20 5 -13 18 -23 29 -23 10 0 27 -9 37 -21 14 -16 21 -18 38 -10 20
11 40 -2 21 -14 -19 -12 -10 -23 43 -49 30 -14 62 -35 72 -46 10 -11 27 -20
37 -20 22 0 97 -50 98 -65 1 -21 59 -75 75 -69 9 4 24 -1 33 -10 9 -9 28 -26
42 -38 17 -14 21 -22 12 -25 -9 -3 -4 -13 14 -30 21 -19 29 -22 35 -11 7 11
10 10 21 -1 10 -11 10 -14 1 -18 -7 -3 -13 -9 -13 -14 0 -6 9 -5 21 1 24 13
38 5 21 -12 -8 -8 17 -39 99 -121 75 -76 109 -117 109 -133 0 -12 5 -26 10
-29 6 -4 28 -29 49 -55 30 -38 41 -46 51 -37 10 10 11 6 6 -15 -5 -21 2 -39
32 -81 21 -30 46 -73 56 -96 11 -22 23 -41 28 -41 4 0 8 -9 8 -20 0 -11 7 -23
15 -26 12 -5 13 -10 4 -20 -9 -11 -6 -21 13 -46 14 -18 31 -51 38 -73 7 -22
21 -53 31 -70 11 -16 19 -40 19 -52 0 -12 5 -25 10 -28 6 -3 10 -15 10 -26 0
-10 9 -36 20 -56 11 -21 20 -49 20 -63 0 -14 5 -31 10 -36 6 -6 15 -39 20 -75
6 -35 14 -73 19 -84 16 -34 71 -350 71 -403 0 -17 5 -34 11 -38 6 -4 8 -20 5
-39 -4 -19 -3 -36 2 -39 5 -3 9 -47 10 -97 1 -58 6 -95 13 -100 7 -4 8 -12 3
-20 -5 -8 -10 -147 -11 -309 -2 -162 -3 -304 -3 -315 -1 -11 4 -30 11 -42 9
-17 9 -26 0 -36 -6 -8 -12 -43 -13 -78 -1 -35 -5 -71 -9 -79 -4 -8 -15 -67
-24 -130 -18 -121 -69 -343 -85 -373 -6 -9 -12 -38 -15 -63 -2 -25 -13 -61
-24 -79 -11 -19 -17 -43 -14 -54 3 -14 1 -21 -8 -21 -8 0 -22 -25 -33 -60 -11
-33 -25 -65 -33 -71 -7 -6 -13 -24 -13 -39 0 -27 -46 -122 -62 -128 -4 -2 -8
-15 -8 -29 0 -20 -3 -23 -21 -18 -14 5 -19 3 -15 -3 3 -6 -3 -26 -14 -44 -11
-18 -24 -42 -29 -53 -5 -12 -16 -26 -24 -33 -9 -8 -13 -21 -9 -34 3 -13 -1
-24 -12 -30 -9 -5 -16 -14 -16 -21 0 -7 -10 -17 -22 -22 -12 -6 -31 -27 -42
-48 -12 -22 -27 -37 -38 -37 -10 0 -18 -4 -18 -10 0 -5 7 -10 15 -10 17 0 20
-25 5 -35 -6 -3 -13 1 -16 9 -10 26 -25 18 -22 -11 2 -21 -1 -28 -14 -27 -14
1 -16 -4 -12 -23 6 -21 4 -24 -12 -20 -22 7 -59 -17 -50 -31 3 -6 -17 -33 -44
-60 -28 -28 -50 -57 -50 -66 0 -18 -15 -21 -25 -6 -9 15 -25 2 -25 -21 0 -12
-7 -19 -19 -19 -15 0 -18 -5 -14 -21 5 -19 3 -21 -20 -15 -27 6 -39 -8 -14
-17 9 -3 9 -8 -2 -18 -10 -11 -15 -11 -18 -1 -6 17 -23 15 -23 -3 0 -8 5 -15
10 -15 6 0 10 -5 10 -11 0 -8 -4 -8 -15 1 -19 16 -40 3 -25 -15 7 -9 7 -15 1
-19 -5 -4 -14 1 -19 10 -8 15 -11 15 -37 -2 -15 -10 -23 -20 -16 -22 27 -9 9
-23 -21 -17 -32 7 -32 6 -13 -9 20 -16 20 -16 -2 -22 -13 -3 -23 -10 -23 -15
0 -5 -9 -9 -20 -9 -13 0 -18 -5 -13 -16 4 -12 0 -14 -19 -9 -16 4 -29 1 -37
-9 -8 -9 -20 -16 -28 -16 -7 0 -17 -8 -20 -17 -11 -29 -41 -56 -52 -48 -6 3
-60 -17 -119 -47 -59 -29 -113 -51 -119 -50 -7 2 -13 -2 -13 -8 0 -5 5 -10 10
-10 6 0 10 -4 10 -10 0 -14 -27 -13 -32 1 -2 7 -16 1 -32 -15 -21 -19 -40 -26
-67 -26 -22 0 -39 -4 -39 -10 0 -5 -6 -10 -14 -10 -8 0 -27 -6 -43 -14 -40
-19 -127 -46 -151 -46 -12 0 -23 -4 -26 -9 -3 -5 -16 -9 -28 -9 -13 0 -54 -9
-92 -21 -37 -11 -76 -21 -86 -21 -9 0 -31 -7 -48 -15 -17 -9 -64 -20 -104 -25
-191 -25 -359 -74 -343 -100 9 -15 308 -12 405 4 1151 191 2014 1024 2264
2186 81 375 102 789 66 1255 -89 1112 -490 1852 -1299 2394 -248 166 -442 273
-1021 559 -476 236 -571 287 -786 420 -255 158 -457 316 -633 497 -228 235
-341 443 -371 676 -41 332 185 643 535 735 93 25 276 26 361 2 401 -110 615
-492 605 -1078 -7 -362 -7 -352 13 -405 64 -169 230 -287 479 -342 114 -25
443 -25 572 -1 482 92 823 337 910 653 43 160 41 766 -5 1086 -161 1140 -808
1899 -1825 2144 -222 54 -565 92 -743 83 -31 -2 -79 -4 -107 -5z m895 -8733
c0 -5 -11 -10 -25 -10 -14 0 -25 5 -25 10 0 6 11 10 25 10 14 0 25 -4 25 -10z"/>
</g>
</svg>
